<svg width="34" height="22" viewBox="0 0 34 22" fill="none" xmlns="http://www.w3.org/2000/svg">
<path d="M0.5 4C0.5 2.067 2.067 0.5 4 0.5H30C31.933 0.5 33.5 2.067 33.5 4V18C33.5 19.933 31.933 21.5 30 21.5H4C2.067 21.5 0.5 19.933 0.5 18V4Z" fill="white" stroke="#EEEEEE"/>
<path fill-rule="evenodd" clip-rule="evenodd" d="M11.5797 7H10.4251L9.56419 8.99471L8.64027 7H7.50646V9.77159L6.30963 7H5.25984L4 9.93963H4.75587L5.02879 9.28863H6.49853L6.77144 9.93963H8.19932V7.63L9.22811 9.93963H9.83695L10.8659 7.63V9.93963H11.5797V7ZM27.2437 9.93963H26.236L24.9132 7.73487V9.93963H23.4856L23.2124 9.28863H21.7427L21.4697 9.93963H20.6507C20.3148 9.93963 19.8738 9.85561 19.6221 9.60355C19.391 9.35164 19.265 9.01572 19.265 8.49074C19.265 8.04979 19.328 7.65085 19.6428 7.33593C19.8527 7.10487 20.2308 7 20.7136 7H21.3854V7.63H20.7136C20.4618 7.63 20.3146 7.67201 20.1677 7.79804C20.0417 7.92407 19.9787 8.15497 19.9787 8.46989C19.9787 8.78481 20.0417 9.01587 20.1677 9.1629C20.2726 9.26778 20.4618 9.30979 20.6505 9.30979H20.9656L21.9734 7.00015H23.0233L24.1992 9.77174V7H25.2911L26.53 9.03672V7H27.2437V9.93963ZM26.236 13.4462C26.068 13.2991 25.8159 13.2152 25.417 13.2152H25.0392C24.9358 13.2152 24.8526 13.1946 24.7699 13.1742L24.7663 13.1733C24.6821 13.1312 24.6194 13.0682 24.6194 12.9631C24.6194 12.8581 24.6403 12.7951 24.7243 12.7321C24.7873 12.6902 24.8712 12.6902 24.9972 12.6902H26.2991V12.0602H24.8923C24.1363 12.0602 23.8842 12.5222 23.8842 12.9423C23.8842 13.8069 24.6019 13.8254 25.2277 13.8416C25.2704 13.8427 25.3127 13.8438 25.3543 13.8452C25.48 13.8452 25.5642 13.866 25.606 13.9082C25.6479 13.9501 25.6902 14.0339 25.6902 14.1181C25.6902 14.202 25.6481 14.265 25.606 14.3071C25.543 14.349 25.4592 14.3699 25.3331 14.3699H23.9683V14.9998H25.3331C26.0468 14.9998 26.4459 14.7061 26.4459 14.0762C26.4459 13.7823 26.3621 13.5931 26.236 13.4462ZM29.1967 14.0762C29.1967 14.7062 28.7977 14.9998 28.0837 14.9998H26.7192V14.3699H28.0837C28.2097 14.3699 28.3148 14.349 28.3569 14.3071C28.3988 14.265 28.4408 14.202 28.4408 14.1181C28.4408 14.0339 28.3989 13.9501 28.3569 13.9082C28.3148 13.866 28.2309 13.8452 28.1049 13.8452C28.0632 13.8438 28.0208 13.8427 27.9781 13.8416C27.3526 13.8254 26.6351 13.8069 26.6351 12.9423C26.6351 12.5222 26.908 12.0602 27.6429 12.0602H29.0496V12.6902H27.7478C27.6221 12.6902 27.5379 12.6902 27.4749 12.7321C27.4119 12.7951 27.37 12.8581 27.37 12.9631C27.37 13.0682 27.433 13.1312 27.5169 13.1733L27.5187 13.1738C27.6023 13.1945 27.6858 13.2152 27.7901 13.2152H28.1679C28.5668 13.2152 28.8189 13.2991 28.9869 13.4462C29.1127 13.5931 29.1967 13.7823 29.1967 14.0762ZM21.8898 14.3912H23.5483V15H21.1968V12.0605H23.5483V12.6694H21.8898V13.2155H23.5065V13.8032H21.8898V14.3912ZM20.4408 12.2076C20.2097 12.0815 19.9368 12.0604 19.5799 12.0604H17.9633V14.9998H18.677V13.9291H19.433C19.6848 13.9291 19.832 13.9502 19.937 14.0551C20.063 14.202 20.063 14.454 20.063 14.6431V14.9998H20.7557V14.4329C20.7557 14.16 20.7349 14.0339 20.6509 13.887C20.5878 13.8029 20.4621 13.698 20.2941 13.635C20.4828 13.5723 20.798 13.3202 20.798 12.8581C20.7979 12.5223 20.6719 12.3333 20.4408 12.2076ZM14.2046 12.0604H16.4514C16.9974 12.0604 17.6274 12.2284 17.6275 13.0263C17.6275 13.8452 17.0184 14.0132 16.4095 14.0132H15.5276V14.9998H14.1628L13.3019 14.0339L12.3989 14.9998H9.60619V12.0604H12.4408L13.3017 13.0263L14.2046 12.0604ZM19.8738 13.2784C19.7689 13.3202 19.6639 13.3202 19.5379 13.3202L18.677 13.3414V12.6692H19.5379C19.6639 12.6692 19.79 12.6692 19.8738 12.7322C19.958 12.7744 20.0207 12.8583 20.0207 12.9843C20.0207 13.1103 19.958 13.2153 19.8738 13.2784ZM15.5275 13.4252H16.4514C16.7033 13.4252 16.8713 13.2784 16.8713 13.0263C16.8713 12.7744 16.7034 12.6692 16.4514 12.6692H15.5275V13.4252ZM13.7427 13.5301L14.8345 12.3754V14.7481L13.7427 13.5301ZM10.2991 14.3912H12.0419L12.8397 13.5303L12.0629 12.6694H10.2991V13.2155H11.8528V13.8032H10.2991V14.3912ZM18.1943 7H18.908V9.93963H18.1943V7ZM17.4172 7.12603C17.1861 7 16.9343 7 16.5774 7H14.9605V9.93963H15.6533V8.86868H16.4092C16.6613 8.86868 16.8293 8.88969 16.9342 8.99471C17.045 9.12403 17.042 9.3346 17.0397 9.49769V9.49777C17.0394 9.52007 17.0391 9.54149 17.0391 9.56169V9.93963H17.7528V9.35164C17.7528 9.09974 17.7319 8.97371 17.627 8.82667C17.564 8.74265 17.438 8.63763 17.2911 8.57476C17.4799 8.49074 17.7951 8.25984 17.7951 7.79788C17.7952 7.46196 17.6481 7.27291 17.4172 7.12603ZM12.8187 9.33079H14.4565V9.93978H12.1049V7.00015H14.4565V7.60899H12.8187V8.13396H14.4355V8.7428H12.8187V9.33079ZM22.4775 7.50397L22.9606 8.65878H21.9947L22.4775 7.50397ZM16.8713 8.19698C16.7665 8.25999 16.6614 8.25999 16.5144 8.25999H15.6533V7.60914H16.5142C16.6403 7.60914 16.787 7.60914 16.8712 7.65115C16.955 7.71417 16.9972 7.79819 16.9972 7.92407C16.9972 8.04994 16.9552 8.15482 16.8713 8.19698ZM5.76366 7.50397L5.28069 8.65878H6.24662L5.76366 7.50397Z" fill="#0077A6"/>
</svg>
