<svg width="34" height="22" viewBox="0 0 34 22" fill="none" xmlns="http://www.w3.org/2000/svg">
<path d="M0.5 4C0.5 2.067 2.067 0.5 4 0.5H30C31.933 0.5 33.5 2.067 33.5 4V18C33.5 19.933 31.933 21.5 30 21.5H4C2.067 21.5 0.5 19.933 0.5 18V4Z" fill="white" stroke="#EEEEEE"/>
<path fill-rule="evenodd" clip-rule="evenodd" d="M21.361 7.33436L21.0832 8.98113C20.2502 8.51036 18.3544 8.39897 18.3542 9.26605C18.3542 9.61051 18.7831 9.84741 19.3001 10.1329C20.0842 10.566 21.0708 11.1108 21.0708 12.3124C21.0708 14.2324 19.0668 14.9378 17.7384 14.9378C16.4104 14.9378 15.5412 14.5048 15.5412 14.5048L15.8306 12.783C16.6276 13.4392 19.0426 13.6256 19.0426 12.585C19.0426 12.1478 18.5672 11.8899 18.0159 11.5908C17.2553 11.1783 16.3502 10.6873 16.3502 9.53867C16.3502 7.43303 18.6442 7 19.6102 7C20.5038 7 21.361 7.33436 21.361 7.33436ZM27.856 14.8055H26.0686L25.8406 13.6665H23.366L22.9602 14.8055H20.931L23.8342 7.70831C23.8342 7.70831 24.0102 7.13682 24.7328 7.13682H26.2976L27.856 14.8055ZM10.7576 7.13703L8.9018 12.4115L8.6822 11.2757L8.6824 11.2761L8.0274 7.82749C8.0274 7.82749 7.9482 7.13703 7.104 7.13703H4.036L4 7.26687C4 7.26687 4.9382 7.46708 6.0362 8.14338L7.7274 14.8057H9.7556L12.8526 7.13703H10.7576ZM14.3418 14.8055H12.3952L13.6118 7.13703H15.5586L14.3418 14.8055ZM23.9266 12.0929L24.9494 9.22318L25.5248 12.0929H23.9266Z" fill="#2566AF"/>
<path d="M8.6824 11.2759L8.0274 7.8273C8.0274 7.8273 7.9482 7.13684 7.104 7.13684H4.036L4 7.26669C4 7.26669 5.4746 7.58012 6.889 8.75448C8.2414 9.87694 8.6824 11.2759 8.6824 11.2759Z" fill="#E6A540"/>
</svg>
